<svg id="svg1650" xmlns="http://www.w3.org/2000/svg" viewBox="0 0 707.91 304.09"><title>AnimalMagicLogo</title><g id="layer1"><path id="path1575" d="M244.61,13.87a14.88,14.88,0,0,0-2,.09c-27,4.66-41.84,33.21-44,58.38-3.14,22.84,6.92,52.19,32,57.31a24.51,24.51,0,0,0,11-.59C271.8,118.94,285.32,83.17,281,53.55,279.65,34.41,265.23,13.61,244.61,13.87ZM130.17,15.09c-16.78.42-29.86,17.44-32.52,33.44-5.6,31.71,8.82,71.1,41.85,81.12a25.72,25.72,0,0,0,9.42.26c22.32-3.73,31.78-28.73,30.84-48.95-.67-26.66-14.51-57.48-42.19-65A26.44,26.44,0,0,0,130.17,15.09Zm187.58,90.09c-29,1.74-48.94,30.71-51.78,57.76-3.84,19.51,6.56,45.61,28.82,47.17,31-.39,52.22-33.56,53.1-62.1C349.86,129.1,338.74,106.18,317.75,105.18ZM63.6,111.57c-12.35-.11-24.5,7.29-28.5,19.85C24.33,165,46,207.55,81.54,214.61c14.85,2.54,27.9-8.86,31.58-22.58,7.8-29.35-8.23-63.42-35.35-76.74A29.33,29.33,0,0,0,63.6,111.57ZM193.77,171.8c-24.21,0-48.81,12.34-64.49,30.64-16.94,21.32-30.81,46.13-36.24,73-6.6,19.37,8.35,41.66,29.06,41.8,24.91.69,46.32-16.41,71.09-17.69,21-3.2,39.83,7.73,58.72,14.89,16.09,6.88,38.32,4.24,46.53-13.07,6.46-17.65-3-36.46-10.92-52.14-16.07-25.43-33.28-52.17-59.63-68A64,64,0,0,0,193.77,171.8Z" transform="translate(-32.32 -13.87)" fill="#1d1d1b"/></g><path d="M447.22,128.18l-6.26,19H427.84L451,81.8h16.25L491,147.18H477.31l-6.73-19Zm21.09-9.33-6-16.48c-1.41-4-2.56-7.89-3.64-11.42h-.2c-1,3.57-2,7.53-3.31,11.35l-5.78,16.55Z" transform="translate(-32.32 -13.87)" fill="#1d1d1b"/><path d="M499.81,114.25c0-5.5-.16-10.23-.39-14.29h10.92l.61,7.6h.3c2-3.63,7.53-8.77,16.35-8.77,8.35,0,18.36,5,18.36,21.3v27.09H533.47V121.64c0-7.46-3-12.81-10.17-12.81a11.25,11.25,0,0,0-10.46,7.41,10.38,10.38,0,0,0-.55,3.62v27.32H499.81Z" transform="translate(-32.32 -13.87)" fill="#1d1d1b"/><path d="M573.1,86.46c0,3.57-2.66,6.6-7.17,6.6A6.55,6.55,0,0,1,559,86.9c0-.15,0-.29,0-.44,0-3.62,2.74-6.6,7.07-6.6S573,82.79,573.1,86.46Zm-13.35,60.72V100h12.48v47.22Z" transform="translate(-32.32 -13.87)" fill="#1d1d1b"/><path d="M586.23,114.25c0-5.5-.15-10.23-.39-14.29h10.59l.56,7.36h.3c2.29-3.66,6.76-8.53,15.73-8.53a14.8,14.8,0,0,1,14.08,9.39h.19a20.51,20.51,0,0,1,6.12-6.22A17.61,17.61,0,0,1,644,98.83c7.9,0,17.07,5.2,17.07,21.51v26.84H649V121.89c0-8.59-3.39-13.06-9.44-13.06a10,10,0,0,0-9.17,6.54,12.77,12.77,0,0,0-.69,4.06v27.75h-12.1V120.84c0-7.46-3.34-12-9.1-12-5.15,0-8.33,4-9.54,7.07a11.12,11.12,0,0,0-.65,4v27.27h-12.1Z" transform="translate(-32.32 -13.87)" fill="#1d1d1b"/><path d="M703.61,147.18l-.89-5.41h-.3c-3,3.75-8.45,6.57-15.22,6.57-10.52,0-15.89-7.23-15.89-14.07,0-11.84,10.73-18.18,30.36-18.05v-.63c0-2.5-1-8.22-10.43-8.18a28.32,28.32,0,0,0-14,3.82l-2.49-8c4-2.41,10.48-4.47,18.47-4.47,16.14,0,20.87,10,20.87,20.43v16.38a68,68,0,0,0,.78,11.58Zm-1.6-23c-9.89-.16-18.2,1.83-18.2,8.68,0,4.39,3.09,6.65,7.36,6.65a11,11,0,0,0,10.47-6.91,9.19,9.19,0,0,0,.37-2.66Z" transform="translate(-32.32 -13.87)" fill="#1d1d1b"/><path d="M727.75,77.73h12.48v69.45H727.75Z" transform="translate(-32.32 -13.87)" fill="#1d1d1b"/><path d="M490.77,192.18h24.72v8.91h-8.62v53.59h8.62v8.9H488.64v-8.9h8.46V201.11l-24.53,63.23H470.4l-24.3-63.23v53.57H454v8.9H428.58v-8.9h8.67V201.11h-8.67v-8.93H453.1l18.81,48.88Z" transform="translate(-32.32 -13.87)" fill="#1d1d1b"/><path d="M564.6,231.37v23.5h8.34v8.71h-17v-6.11q-7.11,7-15.82,7a17.08,17.08,0,0,1-14.52-7.84,14.92,14.92,0,0,1,.24-16.29,16.46,16.46,0,0,1,6.84-5.66,20.29,20.29,0,0,1,8.67-2,23.83,23.83,0,0,1,13.59,4.26v-5.35q0-5.82-2.46-8.33c-1.64-1.68-4.34-2.51-8.1-2.51a13.93,13.93,0,0,0-6.66,1.44,11.48,11.48,0,0,0-4.42,4.38L524,224.18a20.85,20.85,0,0,1,8.57-8.83,26.74,26.74,0,0,1,12.84-2.92q10,0,14.61,4.55T564.6,231.37ZM541.49,256.9q7.2,0,13.5-6v-5.83q-6.39-5-12.79-5a9.87,9.87,0,0,0-6.7,2.44,8.17,8.17,0,0,0-.8,11.53c.14.16.29.32.45.47A8.81,8.81,0,0,0,541.49,256.9Z" transform="translate(-32.32 -13.87)" fill="#1d1d1b"/><path d="M620.68,221v-7.2h18.71v8.76h-9v37.33q0,13-6.56,20.1t-19.15,7.08q-11.94,0-20.37-6.72l6.3-7.06a27.83,27.83,0,0,0,6.84,3.77,21.81,21.81,0,0,0,7.51,1.25q7.38,0,11.56-4.59c2.77-3.07,4.16-7.12,4.16-12.18V256.9a22.25,22.25,0,0,1-8.17,6,24.42,24.42,0,0,1-9.87,2.18,22.65,22.65,0,0,1-12.43-3.51,24.46,24.46,0,0,1-8.62-9.3,26.37,26.37,0,0,1-3.11-12.72,27.17,27.17,0,0,1,3.25-13.12,25.38,25.38,0,0,1,8.88-9.66,22.71,22.71,0,0,1,12.49-3.59,22.17,22.17,0,0,1,9.21,1.94A29.66,29.66,0,0,1,620.68,221Zm-16.19,35.29a15.7,15.7,0,0,0,8.38-2.32,16.08,16.08,0,0,0,5.82-6.26,17.88,17.88,0,0,0,2.09-8.47,17.41,17.41,0,0,0-2.09-8.2,16.92,16.92,0,0,0-5.77-6.34,15.27,15.27,0,0,0-16.34-.1,15.93,15.93,0,0,0-5.69,6.25,18,18,0,0,0-2,8.48,18.61,18.61,0,0,0,2,8.53A15.07,15.07,0,0,0,596.4,254a14.92,14.92,0,0,0,8.09,2.28Z" transform="translate(-32.32 -13.87)" fill="#1d1d1b"/><path d="M668.1,254.87v8.71H643v-8.71h7.77V222.56H643V213.8h17.57v41.07Zm-7-57.83a6,6,0,0,1-5.92,5.92,5.54,5.54,0,0,1-4.08-1.78,6,6,0,0,1,0-8.33,5.53,5.53,0,0,1,4.12-1.76,5.82,5.82,0,0,1,5.92,5.72V197Z" transform="translate(-32.32 -13.87)" fill="#1d1d1b"/><path d="M712.38,217.4v-3.6h8.72v18.85h-8.71a11.37,11.37,0,0,0-4.36-8.31,14.14,14.14,0,0,0-8.76-2.87,13.34,13.34,0,0,0-7.65,2.28,14.86,14.86,0,0,0-5.23,6.15,19.27,19.27,0,0,0-1.85,8.48q0,7.81,4.17,12.77a13.63,13.63,0,0,0,11,5q10.56,0,14.92-9.81l8.15,3.89q-6.87,14.86-23.49,14.87a25,25,0,0,1-13.22-3.51,23.67,23.67,0,0,1-8.92-9.61A29.14,29.14,0,0,1,674,238.38a27.57,27.57,0,0,1,3.19-13.26,23.57,23.57,0,0,1,8.79-9.31,23.94,23.94,0,0,1,12.46-3.34A21,21,0,0,1,712.38,217.4Z" transform="translate(-32.32 -13.87)" fill="#1d1d1b"/></svg>